<svg xmlns="http://www.w3.org/2000/svg" width="16" height="16" viewBox="0 0 4.2333333 4.2333334">
  <path fill="#dd2c00"
    d="M 2.05065,3.9658 c -0.005,-3.9e-4 -0.0265,-0.002 -0.0479,-0.003 -0.13768,-0.01 -0.28281,-0.0417 -0.41872,-0.0928 -0.324,-0.12169 -0.60008,-0.35201 -0.77984,-0.65056 -0.12018,-0.1996 -0.19464,-0.42975 -0.21303,-0.65846 -0.008,-0.0949 -0.008,-0.15474 -0.001,-0.2471 0.0132,-0.17782 0.0564,-0.34832 0.12924,-0.51063 0.0641,-0.14288 0.1447,-0.26743 0.25392,-0.39249 0.0104,-0.0119 0.27113,-0.27401 0.57934,-0.58239 l 0.5604,-0.56069 v 0.26856 0.26855 l -0.43014,0.4305 c -0.43507,0.43543 -0.44531,0.44594 -0.48794,0.50103 -0.13648,0.17638 -0.21807,0.39346 -0.23215,0.61767 -0.002,0.0381 -0.002,0.10842 -5e-5,0.14563 0.0138,0.21739 0.0887,0.42487 0.21733,0.60255 0.0793,0.10956 0.18762,0.21405 0.29811,0.28767 0.15784,0.10516 0.32943,0.16602 0.52271,0.18541 0.0525,0.005 0.15177,0.006 0.20438,8.5e-4 0.20322,-0.0187 0.39299,-0.0872 0.5561,-0.20083 0.0602,-0.042 0.10497,-0.0798 0.16298,-0.13768 0.0602,-0.0601 0.0998,-0.10743 0.14237,-0.17018 0.0915,-0.1349 0.15252,-0.28942 0.17947,-0.45478 0.0183,-0.11251 0.0183,-0.24403 -1.1e-4,-0.35902 -0.0368,-0.22989 -0.1401,-0.43946 -0.30081,-0.6102 -0.0116,-0.0123 -0.0213,-0.0229 -0.0215,-0.0235 -2.5e-4,-6.3e-4 0.0613,-0.0629 0.13668,-0.13827 l 0.13713,-0.13712 0.022,0.0228 c 0.0364,0.0377 0.0824,0.0914 0.11553,0.13483 0.13879,0.18222 0.23492,0.39297 0.28091,0.61585 0.0422,0.2044 0.0422,0.417 3e-5,0.62219 -0.019,0.0926 -0.0484,0.1874 -0.0873,0.28125 -0.11424,0.27601 -0.32204,0.52762 -0.57469,0.69582 -0.21156,0.14085 -0.4567,0.22548 -0.71172,0.24573 -0.0338,0.003 -0.16934,0.005 -0.19171,0.003 z m 0.58013,-2.6921 c -0.0508,-0.007 -0.10119,-0.0363 -0.13272,-0.0783 -0.0137,-0.0183 -0.027,-0.0455 -0.0333,-0.0681 -0.006,-0.0234 -0.008,-0.0643 -0.004,-0.0869 0.008,-0.0412 0.0246,-0.0734 0.0518,-0.10198 0.0258,-0.0272 0.0577,-0.0462 0.0948,-0.0565 0.0168,-0.005 0.0205,-0.005 0.0506,-0.005 0.0298,6e-5 0.0341,4.9e-4 0.0505,0.005 0.1243,0.0343 0.18501,0.17144 0.12641,0.28551 -0.0382,0.0744 -0.12056,0.11714 -0.2045,0.10623 z" />
</svg>