<svg width="260mm" height="260mm" xmlns="http://www.w3.org/2000/svg">
  <path fill="#DD2C00"
    d="M 126.83137,244.88189 C 109.01063,244.13826 92.472933,238.81406 77.834473,229.10767 64.088752,219.99324 52.844665,207.44874 45.422166,192.94678 41.625,185.52793 38.995035,178.27689 37.194084,170.26123 c -3.522151,-15.67636 -2.985182,-32.1429 1.554508,-47.6701 1.615489,-5.5255 3.696075,-10.77033 6.349718,-16.00666 4.153354,-8.195643 9.140119,-15.366358 15.307719,-22.011716 1.445754,-1.557746 69.297151,-69.460449 69.407971,-69.460449 0.0405,0 0.0737,7.490661 0.0737,16.645913 v 16.645913 l -26.42687,26.45101 C 88.926052,89.403197 76.505948,101.9126 75.860598,102.65381 c -4.287055,4.92386 -7.499827,9.68101 -10.239172,15.16113 -6.121762,12.24673 -8.539942,26.3092 -6.865379,39.92432 1.014729,8.25029 3.173103,15.52501 6.78068,22.854 2.915266,5.92253 5.982436,10.55059 10.254444,15.47298 10.447085,12.03756 23.837618,20.02061 38.930269,23.20911 6.07762,1.28397 12.55612,1.80387 18.2309,1.46305 15.66609,-0.94088 29.39495,-6.22021 41.46416,-15.94472 3.01112,-2.42614 7.07093,-6.37236 9.63948,-9.36978 20.56471,-23.99833 22.59745,-58.77923 4.98209,-85.24568 -2.37994,-3.57578 -4.65249,-6.42622 -7.74355,-9.71265 l -1.32022,-1.403671 8.50744,-8.508 c 4.6791,-4.6794 8.56626,-8.508001 8.63813,-8.508001 0.0719,0 0.2686,0.164246 0.43719,0.364991 0.16858,0.200744 0.8882,0.971435 1.59916,1.712646 6.03767,6.294591 11.80636,14.531972 15.88691,22.685675 8.34843,16.6817 11.59298,35.26258 9.39336,53.79382 -2.27171,19.13843 -10.37381,37.25932 -23.17132,51.82418 -13.95243,15.87926 -31.36755,26.18713 -51.49955,30.48216 -5.19852,1.10908 -10.25258,1.7208 -16.34033,1.97777 -2.82664,0.11931 -3.62409,0.11868 -6.59392,-0.005 z M 161.4066,77.598992 c -4.41639,-0.797921 -8.19727,-4.066044 -9.60187,-8.299676 -0.6462,-1.94773 -0.79046,-4.47068 -0.37009,-6.472369 0.98398,-4.6855 4.41468,-8.266602 9.15136,-9.552572 1.06024,-0.287847 3.77764,-0.400438 4.98728,-0.206639 2.42774,0.388953 4.75923,1.539018 6.55579,3.233799 4.43358,4.182419 5.1916,10.882726 1.8067,15.969919 -1.89446,2.847197 -5.16689,4.923356 -8.48832,5.385324 -1.17076,0.162838 -2.96146,0.13723 -4.04085,-0.05779 z" />
</svg>