<svg width="100" height="100" xmlns="http://www.w3.org/2000/svg">

    <!-- Clock Face -->
    <circle cx="50" cy="50" r="48" fill="#FFFFFF" stroke="#000000" stroke-width="4" />
    <circle cx="50" cy="50" r="46" fill="#ECEFF1" />

    <!-- Center Dot -->
    <circle cx="50" cy="50" r="2.5" fill="#424242" />

    <!-- Hour Markers -->
    <g id="hour-markers" stroke="#757575" stroke-width="1.5" stroke-linecap="round">
        <line x1="50" y1="8" x2="50" y2="14" transform="rotate(0 50 50)" />
        <line x1="50" y1="8" x2="50" y2="14" transform="rotate(30 50 50)" />
        <line x1="50" y1="8" x2="50" y2="14" transform="rotate(60 50 50)" />
        <line x1="50" y1="8" x2="50" y2="18" transform="rotate(90 50 50)" /> <!-- 3, 6, 9, 12 are longer -->
        <line x1="50" y1="8" x2="50" y2="14" transform="rotate(120 50 50)" />
        <line x1="50" y1="8" x2="50" y2="14" transform="rotate(150 50 50)" />
        <line x1="50" y1="8" x2="50" y2="18" transform="rotate(180 50 50)" />
        <line x1="50" y1="8" x2="50" y2="14" transform="rotate(210 50 50)" />
        <line x1="50" y1="8" x2="50" y2="14" transform="rotate(240 50 50)" />
        <line x1="50" y1="8" x2="50" y2="18" transform="rotate(270 50 50)" />
        <line x1="50" y1="8" x2="50" y2="14" transform="rotate(300 50 50)" />
        <line x1="50" y1="8" x2="50" y2="14" transform="rotate(330 50 50)" />
    </g>

    <!-- Clock Hands -->
    <!-- Hour hand calculation: -->
    <g id="hour-hand" transform="rotate(305 50 50)">
        <rect x="48" y="25" width="4" height="25" rx="2" ry="2" fill="#424242" />
    </g>

    <!-- Minute hand calculation -->
    <g id="minute-hand" transform="rotate(63 50 50)">
        <rect x="48.5" y="15" width="3" height="35" rx="1.5" ry="1.5" fill="#424242" />
    </g>

    <!-- Second hand calculation: Seconds * 6 degrees -->
    <g id="second-hand" transform="rotate(180 50 50)">
        <!-- Base circle for the second hand -->
        <circle cx="50" cy="50" r="1.5" fill="#E53935" />
        <!-- The hand itself -->
        <rect x="49.25" y="10" width="1.5" height="40" rx="0.75" ry="0.75" fill="#E53935" />
        <!-- Counterweight for the second hand-->
        <rect x="49.25" y="50" width="1.5" height="8" rx="0.75" ry="0.75" fill="#E53935" />
    </g>

</svg>